<mxfile host="app.diagrams.net" modified="2024-02-23T14:15:31.153Z" agent="Mozilla/5.0 (Windows NT 10.0; Win64; x64) AppleWebKit/537.36 (KHTML, like Gecko) Chrome/121.0.0.0 Safari/537.36" etag="QvSUZzIGVmLNrohgUAxu" version="23.1.6" type="github">
  <diagram id="C5RBs43oDa-KdzZeNtuy" name="Page-1">
    <mxGraphModel dx="1364" dy="809" grid="1" gridSize="10" guides="1" tooltips="1" connect="1" arrows="1" fold="1" page="1" pageScale="1" pageWidth="827" pageHeight="1169" math="0" shadow="0">
      <root>
        <mxCell id="WIyWlLk6GJQsqaUBKTNV-0" />
        <mxCell id="WIyWlLk6GJQsqaUBKTNV-1" parent="WIyWlLk6GJQsqaUBKTNV-0" />
        <mxCell id="XqDWKLsDl-9VnyJJW4f7-29" value="" style="edgeStyle=none;curved=1;rounded=0;orthogonalLoop=1;jettySize=auto;html=1;fontSize=12;startSize=8;endSize=8;" edge="1" parent="WIyWlLk6GJQsqaUBKTNV-1" source="XqDWKLsDl-9VnyJJW4f7-30" target="XqDWKLsDl-9VnyJJW4f7-36">
          <mxGeometry relative="1" as="geometry" />
        </mxCell>
        <mxCell id="XqDWKLsDl-9VnyJJW4f7-30" value="Dane z master dotyczące prędkości obrotowej oraz kierunku obrotu silników krokowych, dostarczana jako ciąg znaków, gdzie wartość RPM oraz kierunku podzielone są spacją&amp;nbsp;" style="rounded=1;whiteSpace=wrap;html=1;fontSize=12;glass=0;strokeWidth=1;shadow=0;" vertex="1" parent="WIyWlLk6GJQsqaUBKTNV-1">
          <mxGeometry x="-60" y="70" width="180" height="110" as="geometry" />
        </mxCell>
        <mxCell id="XqDWKLsDl-9VnyJJW4f7-31" value="tak" style="rounded=0;html=1;jettySize=auto;orthogonalLoop=1;fontSize=11;endArrow=block;endFill=0;endSize=8;strokeWidth=1;shadow=0;labelBackgroundColor=none;edgeStyle=orthogonalEdgeStyle;" edge="1" parent="WIyWlLk6GJQsqaUBKTNV-1" source="XqDWKLsDl-9VnyJJW4f7-33">
          <mxGeometry x="0.0122" y="20" relative="1" as="geometry">
            <mxPoint as="offset" />
            <mxPoint x="230" y="300" as="targetPoint" />
          </mxGeometry>
        </mxCell>
        <mxCell id="XqDWKLsDl-9VnyJJW4f7-32" value="nie" style="edgeStyle=orthogonalEdgeStyle;rounded=0;html=1;jettySize=auto;orthogonalLoop=1;fontSize=11;endArrow=block;endFill=0;endSize=8;strokeWidth=1;shadow=0;labelBackgroundColor=none;entryX=1;entryY=0.5;entryDx=0;entryDy=0;" edge="1" parent="WIyWlLk6GJQsqaUBKTNV-1" source="XqDWKLsDl-9VnyJJW4f7-33" target="XqDWKLsDl-9VnyJJW4f7-36">
          <mxGeometry y="10" relative="1" as="geometry">
            <mxPoint as="offset" />
            <mxPoint x="330" y="220" as="targetPoint" />
            <Array as="points">
              <mxPoint x="310" y="220" />
              <mxPoint x="310" y="120" />
            </Array>
          </mxGeometry>
        </mxCell>
        <mxCell id="XqDWKLsDl-9VnyJJW4f7-33" value="Czy dane zostały odebrane?" style="rhombus;whiteSpace=wrap;html=1;shadow=0;fontFamily=Helvetica;fontSize=12;align=center;strokeWidth=1;spacing=6;spacingTop=-4;" vertex="1" parent="WIyWlLk6GJQsqaUBKTNV-1">
          <mxGeometry x="180" y="180" width="100" height="80" as="geometry" />
        </mxCell>
        <mxCell id="XqDWKLsDl-9VnyJJW4f7-34" value="" style="edgeStyle=none;curved=1;rounded=0;orthogonalLoop=1;jettySize=auto;html=1;fontSize=12;startSize=8;endSize=8;" edge="1" parent="WIyWlLk6GJQsqaUBKTNV-1">
          <mxGeometry relative="1" as="geometry">
            <mxPoint x="230" y="420" as="sourcePoint" />
            <mxPoint x="230" y="474" as="targetPoint" />
          </mxGeometry>
        </mxCell>
        <mxCell id="XqDWKLsDl-9VnyJJW4f7-35" style="edgeStyle=none;curved=1;rounded=0;orthogonalLoop=1;jettySize=auto;html=1;exitX=1;exitY=1;exitDx=0;exitDy=0;fontSize=12;startSize=8;endSize=8;" edge="1" parent="WIyWlLk6GJQsqaUBKTNV-1">
          <mxGeometry relative="1" as="geometry">
            <mxPoint x="250" y="132.5" as="sourcePoint" />
            <mxPoint x="250" y="132.5" as="targetPoint" />
          </mxGeometry>
        </mxCell>
        <mxCell id="XqDWKLsDl-9VnyJJW4f7-36" value="Oczekiwanie na dane" style="rounded=1;whiteSpace=wrap;html=1;fontSize=16;" vertex="1" parent="WIyWlLk6GJQsqaUBKTNV-1">
          <mxGeometry x="170" y="90" width="120" height="60" as="geometry" />
        </mxCell>
        <mxCell id="XqDWKLsDl-9VnyJJW4f7-37" value="" style="endArrow=classic;html=1;rounded=0;fontSize=12;startSize=8;endSize=8;curved=1;entryX=0.5;entryY=0;entryDx=0;entryDy=0;" edge="1" parent="WIyWlLk6GJQsqaUBKTNV-1" target="XqDWKLsDl-9VnyJJW4f7-33">
          <mxGeometry width="50" height="50" relative="1" as="geometry">
            <mxPoint x="230" y="150" as="sourcePoint" />
            <mxPoint x="280" y="100" as="targetPoint" />
          </mxGeometry>
        </mxCell>
        <mxCell id="XqDWKLsDl-9VnyJJW4f7-38" value="Podzielenie danych na odrębne zmienne liczbowe prędkości obrotowej oraz kierunku obrotu" style="rounded=1;whiteSpace=wrap;html=1;fontSize=12;glass=0;strokeWidth=1;shadow=0;" vertex="1" parent="WIyWlLk6GJQsqaUBKTNV-1">
          <mxGeometry x="140" y="300" width="180" height="110" as="geometry" />
        </mxCell>
        <mxCell id="XqDWKLsDl-9VnyJJW4f7-58" style="edgeStyle=orthogonalEdgeStyle;rounded=0;orthogonalLoop=1;jettySize=auto;html=1;entryX=0.5;entryY=0;entryDx=0;entryDy=0;" edge="1" parent="WIyWlLk6GJQsqaUBKTNV-1" source="XqDWKLsDl-9VnyJJW4f7-45" target="XqDWKLsDl-9VnyJJW4f7-48">
          <mxGeometry relative="1" as="geometry" />
        </mxCell>
        <mxCell id="XqDWKLsDl-9VnyJJW4f7-45" value="Przeliczenie wartości prędkości obrotowej na konieczną długość sygnału PWM" style="rounded=1;whiteSpace=wrap;html=1;fontSize=12;glass=0;strokeWidth=1;shadow=0;" vertex="1" parent="WIyWlLk6GJQsqaUBKTNV-1">
          <mxGeometry x="140" y="475" width="180" height="110" as="geometry" />
        </mxCell>
        <mxCell id="XqDWKLsDl-9VnyJJW4f7-47" value="" style="edgeStyle=none;curved=1;rounded=0;orthogonalLoop=1;jettySize=auto;html=1;fontSize=12;startSize=8;endSize=8;" edge="1" parent="WIyWlLk6GJQsqaUBKTNV-1" source="XqDWKLsDl-9VnyJJW4f7-48" target="XqDWKLsDl-9VnyJJW4f7-51">
          <mxGeometry relative="1" as="geometry" />
        </mxCell>
        <mxCell id="XqDWKLsDl-9VnyJJW4f7-48" value="rozpoczęcie ruchu w odpowiednim kierunku" style="rounded=1;whiteSpace=wrap;html=1;fontSize=12;glass=0;strokeWidth=1;shadow=0;" vertex="1" parent="WIyWlLk6GJQsqaUBKTNV-1">
          <mxGeometry x="140" y="700" width="180" height="110" as="geometry" />
        </mxCell>
        <mxCell id="XqDWKLsDl-9VnyJJW4f7-49" style="edgeStyle=none;curved=1;rounded=0;orthogonalLoop=1;jettySize=auto;html=1;exitX=0.5;exitY=1;exitDx=0;exitDy=0;entryX=0.5;entryY=0;entryDx=0;entryDy=0;fontSize=12;startSize=8;endSize=8;" edge="1" parent="WIyWlLk6GJQsqaUBKTNV-1" source="XqDWKLsDl-9VnyJJW4f7-51" target="XqDWKLsDl-9VnyJJW4f7-53">
          <mxGeometry relative="1" as="geometry" />
        </mxCell>
        <mxCell id="XqDWKLsDl-9VnyJJW4f7-50" value="tak" style="edgeLabel;html=1;align=center;verticalAlign=middle;resizable=0;points=[];fontSize=16;" vertex="1" connectable="0" parent="XqDWKLsDl-9VnyJJW4f7-49">
          <mxGeometry x="-0.6214" y="2" relative="1" as="geometry">
            <mxPoint as="offset" />
          </mxGeometry>
        </mxCell>
        <mxCell id="XqDWKLsDl-9VnyJJW4f7-51" value="Organoleptyczna ocena zerwania próbki, jeśli tak, wciśnięcie przycisku" style="rhombus;whiteSpace=wrap;html=1;shadow=0;fontFamily=Helvetica;fontSize=12;align=center;strokeWidth=1;spacing=6;spacingTop=-4;" vertex="1" parent="WIyWlLk6GJQsqaUBKTNV-1">
          <mxGeometry x="150" y="860" width="160" height="150" as="geometry" />
        </mxCell>
        <mxCell id="XqDWKLsDl-9VnyJJW4f7-52" value="" style="edgeStyle=none;curved=1;rounded=0;orthogonalLoop=1;jettySize=auto;html=1;fontSize=12;startSize=8;endSize=8;" edge="1" parent="WIyWlLk6GJQsqaUBKTNV-1" source="XqDWKLsDl-9VnyJJW4f7-53" target="XqDWKLsDl-9VnyJJW4f7-54">
          <mxGeometry relative="1" as="geometry" />
        </mxCell>
        <mxCell id="XqDWKLsDl-9VnyJJW4f7-53" value="zakończenie ruchu" style="rounded=1;whiteSpace=wrap;html=1;fontSize=12;glass=0;strokeWidth=1;shadow=0;" vertex="1" parent="WIyWlLk6GJQsqaUBKTNV-1">
          <mxGeometry x="140" y="1100" width="180" height="110" as="geometry" />
        </mxCell>
        <mxCell id="XqDWKLsDl-9VnyJJW4f7-54" value="wysłanie pojedynczej ramki sygnału PWM do mikrokontrolera odpowiadającego za sterowanie belką tensometryczną" style="rounded=1;whiteSpace=wrap;html=1;fontSize=12;glass=0;strokeWidth=1;shadow=0;" vertex="1" parent="WIyWlLk6GJQsqaUBKTNV-1">
          <mxGeometry x="140" y="1270" width="180" height="110" as="geometry" />
        </mxCell>
        <mxCell id="XqDWKLsDl-9VnyJJW4f7-60" value="" style="endArrow=classic;html=1;rounded=0;" edge="1" parent="WIyWlLk6GJQsqaUBKTNV-1">
          <mxGeometry width="50" height="50" relative="1" as="geometry">
            <mxPoint x="410" y="830" as="sourcePoint" />
            <mxPoint x="230" y="830" as="targetPoint" />
          </mxGeometry>
        </mxCell>
        <mxCell id="XqDWKLsDl-9VnyJJW4f7-63" value="NIE" style="edgeLabel;html=1;align=center;verticalAlign=middle;resizable=0;points=[];" vertex="1" connectable="0" parent="XqDWKLsDl-9VnyJJW4f7-60">
          <mxGeometry x="0.0422" y="-4" relative="1" as="geometry">
            <mxPoint as="offset" />
          </mxGeometry>
        </mxCell>
        <mxCell id="XqDWKLsDl-9VnyJJW4f7-61" value="" style="endArrow=none;html=1;rounded=0;" edge="1" parent="WIyWlLk6GJQsqaUBKTNV-1">
          <mxGeometry width="50" height="50" relative="1" as="geometry">
            <mxPoint x="410" y="940" as="sourcePoint" />
            <mxPoint x="410" y="830" as="targetPoint" />
          </mxGeometry>
        </mxCell>
        <mxCell id="XqDWKLsDl-9VnyJJW4f7-62" value="" style="endArrow=none;html=1;rounded=0;exitX=1;exitY=0.5;exitDx=0;exitDy=0;" edge="1" parent="WIyWlLk6GJQsqaUBKTNV-1" source="XqDWKLsDl-9VnyJJW4f7-51">
          <mxGeometry width="50" height="50" relative="1" as="geometry">
            <mxPoint x="250" y="760" as="sourcePoint" />
            <mxPoint x="410" y="935" as="targetPoint" />
          </mxGeometry>
        </mxCell>
      </root>
    </mxGraphModel>
  </diagram>
</mxfile>
